<svg width="145" height="62" viewBox="0 0 145 62" fill="none" xmlns="http://www.w3.org/2000/svg">
<path d="M18.744 46.24C14.936 46.24 11.624 45.552 8.808 44.176C5.992 42.768 3.832 40.784 2.328 38.224C0.824 35.664 0.0720001 32.688 0.0720001 29.296C0.0720001 24.592 0.952 20.416 2.712 16.768C4.504 13.12 6.92 10.304 9.96 8.32C13 6.304 16.376 5.296 20.088 5.296C23.544 5.296 26.168 6.192 27.96 7.984C29.752 9.744 30.648 12.08 30.648 14.992C30.648 16.944 30.296 18.512 29.592 19.696C28.92 20.88 27.944 21.472 26.664 21.472C25.768 21.472 25.064 21.264 24.552 20.848C24.04 20.432 23.784 19.824 23.784 19.024C23.784 18.736 23.848 18.208 23.976 17.44C24.168 16.48 24.264 15.712 24.264 15.136C24.264 12.224 22.712 10.768 19.608 10.768C17.496 10.768 15.48 11.456 13.56 12.832C11.64 14.208 10.088 16.24 8.904 18.928C7.72 21.584 7.128 24.752 7.128 28.432C7.128 32.272 8.2 35.248 10.344 37.36C12.488 39.44 15.656 40.48 19.848 40.48C21.928 40.48 24.024 40.224 26.136 39.712C28.28 39.168 30.648 38.352 33.24 37.264C33.72 37.072 34.12 36.976 34.44 36.976C34.952 36.976 35.336 37.168 35.592 37.552C35.848 37.936 35.976 38.432 35.976 39.04C35.976 40.992 34.92 42.432 32.808 43.36C30.536 44.352 28.168 45.088 25.704 45.568C23.272 46.016 20.952 46.24 18.744 46.24ZM56.2215 31.264C56.6375 31.264 56.9575 31.472 57.1815 31.888C57.4055 32.304 57.5175 32.832 57.5175 33.472C57.5175 35.008 57.0535 35.92 56.1255 36.208C54.2055 36.88 52.0935 37.264 49.7895 37.36C49.1815 40.048 47.9815 42.208 46.1895 43.84C44.3975 45.44 42.3655 46.24 40.0935 46.24C38.1735 46.24 36.5255 45.776 35.1495 44.848C33.8055 43.92 32.7815 42.688 32.0775 41.152C31.3735 39.616 31.0215 37.952 31.0215 36.16C31.0215 33.728 31.4855 31.568 32.4135 29.68C33.3415 27.76 34.6215 26.272 36.2535 25.216C37.8855 24.128 39.6935 23.584 41.6775 23.584C44.1095 23.584 46.0615 24.432 47.5335 26.128C49.0375 27.792 49.9175 29.856 50.1735 32.32C51.6775 32.224 53.4695 31.904 55.5495 31.36C55.8055 31.296 56.0295 31.264 56.2215 31.264ZM40.4775 41.152C41.5015 41.152 42.3815 40.736 43.1175 39.904C43.8855 39.072 44.3975 37.872 44.6535 36.304C43.6615 35.632 42.8935 34.752 42.3495 33.664C41.8375 32.576 41.5815 31.424 41.5815 30.208C41.5815 29.696 41.6295 29.184 41.7255 28.672H41.4855C40.2055 28.672 39.1335 29.296 38.2695 30.544C37.4375 31.76 37.0215 33.488 37.0215 35.728C37.0215 37.488 37.3575 38.832 38.0295 39.76C38.7335 40.688 39.5495 41.152 40.4775 41.152ZM87.5738 32.56C88.4698 32.56 88.9178 33.232 88.9178 34.576C88.9178 37.136 86.8698 38.416 82.7738 38.416C82.6138 38.416 81.7178 38.368 80.0858 38.272C80.4378 39.968 80.7098 41.904 80.9018 44.08C81.1258 46.224 81.2378 48.368 81.2378 50.512C81.2378 53.968 80.6458 56.608 79.4618 58.432C78.3098 60.256 76.8218 61.168 74.9978 61.168C72.6938 61.168 71.0458 59.536 70.0538 56.272C69.0938 53.008 68.6138 48.08 68.6138 41.488C68.6138 39.792 68.6618 38.08 68.7578 36.352C68.4698 36.384 68.0058 36.4 67.3658 36.4C66.5018 36.4 65.7978 36.416 65.2538 36.448C65.5738 38.816 65.8138 41.088 65.9738 43.264C66.1658 45.44 66.2618 47.856 66.2618 50.512C66.2618 53.968 65.6698 56.608 64.4858 58.432C63.3338 60.256 61.8458 61.168 60.0218 61.168C57.7178 61.168 56.0698 59.536 55.0778 56.272C54.1178 53.008 53.6378 48.08 53.6378 41.488C53.6378 35.312 54.2458 29.072 55.4618 22.768C56.7098 16.432 58.4378 11.2 60.6458 7.072C62.8538 2.944 65.3498 0.879997 68.1338 0.879997C69.5738 0.879997 70.6938 1.488 71.4938 2.704C72.3258 3.888 72.7418 5.6 72.7418 7.84C72.7418 11.328 71.7978 15.216 69.9098 19.504C68.0538 23.76 64.7578 28.24 60.0218 32.944C59.7338 35.76 59.5898 38.496 59.5898 41.152C59.5898 44.448 59.7018 47.824 59.9258 51.28C60.1498 54.768 60.5178 56.512 61.0298 56.512C61.5098 56.512 61.8938 56.112 62.1818 55.312C62.4698 54.512 62.6138 53.248 62.6138 51.52C62.6138 48.384 62.4858 45.616 62.2298 43.216C62.0058 40.784 61.7338 38.832 61.4138 37.36C61.3498 37.136 61.3178 36.8 61.3178 36.352C61.3178 34.976 61.8618 33.84 62.9498 32.944C64.0698 32.048 65.5418 31.584 67.3658 31.552H68.5178H69.1898C69.7978 26.24 70.7898 21.248 72.1658 16.576C73.5738 11.872 75.2698 8.08 77.2538 5.2C79.2698 2.32 81.4298 0.879997 83.7338 0.879997C85.2378 0.879997 86.4058 1.552 87.2378 2.896C88.1018 4.24 88.5338 6.048 88.5338 8.32C88.5338 11.136 88.0058 14.288 86.9498 17.776C85.8938 21.264 84.3258 24.544 82.2458 27.616C80.1978 30.656 77.7498 32.944 74.9018 34.48C74.6778 36.624 74.5658 38.848 74.5658 41.152C74.5658 44.448 74.6778 47.824 74.9018 51.28C75.1258 54.768 75.4938 56.512 76.0058 56.512C76.4858 56.512 76.8698 56.112 77.1578 55.312C77.4458 54.512 77.5898 53.248 77.5898 51.52C77.5898 49.024 77.4618 46.64 77.2058 44.368C76.9498 42.096 76.6778 40.24 76.3898 38.8C76.3258 38.544 76.2938 38.192 76.2938 37.744C76.2938 36.432 76.7418 35.328 77.6378 34.432C78.5338 33.504 79.5578 33.04 80.7098 33.04C81.7978 33.04 82.7898 33.008 83.6858 32.944C84.6138 32.848 85.2058 32.784 85.4618 32.752C86.5498 32.624 87.2538 32.56 87.5738 32.56ZM67.1258 5.632C66.5498 5.632 65.8618 6.608 65.0618 8.56C64.2938 10.512 63.5258 13.104 62.7578 16.336C61.9898 19.568 61.3338 23.008 60.7898 26.656C63.2218 23.776 65.0458 20.656 66.2618 17.296C67.5098 13.904 68.1338 10.832 68.1338 8.08C68.1338 7.28 68.0378 6.672 67.8458 6.256C67.6538 5.84 67.4138 5.632 67.1258 5.632ZM82.7258 5.632C82.0858 5.632 81.3018 6.752 80.3738 8.992C79.4778 11.232 78.5818 14.16 77.6858 17.776C76.8218 21.392 76.1018 25.136 75.5258 29.008C77.3498 27.568 78.8858 25.648 80.1338 23.248C81.4138 20.848 82.3578 18.336 82.9658 15.712C83.6058 13.088 83.9258 10.704 83.9258 8.56C83.9258 6.608 83.5258 5.632 82.7258 5.632ZM88.6808 46.24C87.4648 46.24 86.6008 45.6 86.0888 44.32C85.6088 43.04 85.3688 40.992 85.3688 38.176C85.3688 34.016 85.9608 30.064 87.1448 26.32C87.4328 25.392 87.8968 24.72 88.5368 24.304C89.2088 23.856 90.1368 23.632 91.3208 23.632C91.9608 23.632 92.4088 23.712 92.6648 23.872C92.9208 24.032 93.0488 24.336 93.0488 24.784C93.0488 25.296 92.8088 26.448 92.3288 28.24C92.0088 29.52 91.7528 30.64 91.5608 31.6C91.3688 32.56 91.2088 33.744 91.0808 35.152C92.1368 32.4 93.3208 30.16 94.6328 28.432C95.9448 26.704 97.2248 25.472 98.4728 24.736C99.7528 24 100.921 23.632 101.977 23.632C104.057 23.632 105.097 24.672 105.097 26.752C105.097 27.168 104.953 28.176 104.665 29.776C104.409 31.056 104.281 31.856 104.281 32.176C104.281 33.296 104.681 33.856 105.481 33.856C106.377 33.856 107.529 33.152 108.937 31.744C109.353 31.328 109.785 31.12 110.233 31.12C110.649 31.12 110.969 31.312 111.193 31.696C111.449 32.048 111.577 32.528 111.577 33.136C111.577 34.32 111.257 35.248 110.617 35.92C109.721 36.848 108.665 37.648 107.449 38.32C106.265 38.96 105.001 39.28 103.657 39.28C101.961 39.28 100.665 38.848 99.7688 37.984C98.9048 37.12 98.4728 35.952 98.4728 34.48C98.4728 34 98.5208 33.52 98.6168 33.04C98.6808 32.4 98.7128 31.968 98.7128 31.744C98.7128 31.232 98.5368 30.976 98.1848 30.976C97.7048 30.976 97.0648 31.52 96.2648 32.608C95.4968 33.664 94.7288 35.072 93.9608 36.832C93.1928 38.592 92.5688 40.448 92.0888 42.4C91.7368 43.904 91.3208 44.928 90.8408 45.472C90.3928 45.984 89.6728 46.24 88.6808 46.24ZM128.525 35.296C128.941 35.296 129.261 35.488 129.484 35.872C129.741 36.256 129.869 36.784 129.869 37.456C129.869 38.736 129.565 39.728 128.957 40.432C127.773 41.872 126.093 43.2 123.917 44.416C121.773 45.632 119.469 46.24 117.005 46.24C113.645 46.24 111.037 45.328 109.181 43.504C107.325 41.68 106.396 39.184 106.396 36.016C106.396 33.808 106.861 31.76 107.789 29.872C108.717 27.952 109.997 26.432 111.629 25.312C113.293 24.192 115.165 23.632 117.245 23.632C119.101 23.632 120.589 24.192 121.709 25.312C122.829 26.4 123.389 27.888 123.389 29.776C123.389 31.984 122.589 33.888 120.989 35.488C119.421 37.056 116.749 38.304 112.973 39.232C113.773 40.704 115.293 41.44 117.533 41.44C118.973 41.44 120.605 40.944 122.429 39.952C124.285 38.928 125.885 37.6 127.229 35.968C127.613 35.52 128.045 35.296 128.525 35.296ZM116.429 28.336C115.245 28.336 114.237 29.024 113.405 30.4C112.605 31.776 112.205 33.44 112.205 35.392V35.488C114.093 35.04 115.581 34.368 116.669 33.472C117.757 32.576 118.301 31.536 118.301 30.352C118.301 29.744 118.125 29.264 117.773 28.912C117.453 28.528 117.005 28.336 116.429 28.336ZM143.144 36.736C143.56 36.736 143.88 36.928 144.104 37.312C144.36 37.696 144.488 38.224 144.488 38.896C144.488 40.048 144.216 41.04 143.672 41.872C142.776 43.248 141.592 44.32 140.12 45.088C138.68 45.856 136.952 46.24 134.936 46.24C131.864 46.24 129.48 45.328 127.784 43.504C126.088 41.648 125.24 39.152 125.24 36.016C125.24 33.808 125.704 31.76 126.632 29.872C127.56 27.952 128.84 26.432 130.472 25.312C132.136 24.192 134.008 23.632 136.088 23.632C137.944 23.632 139.432 24.192 140.552 25.312C141.672 26.4 142.232 27.888 142.232 29.776C142.232 31.984 141.432 33.888 139.832 35.488C138.264 37.056 135.576 38.304 131.768 39.232C132.536 40.704 133.832 41.44 135.656 41.44C136.968 41.44 138.04 41.136 138.872 40.528C139.736 39.92 140.728 38.896 141.848 37.456C142.232 36.976 142.664 36.736 143.144 36.736ZM135.272 28.336C134.088 28.336 133.08 29.024 132.248 30.4C131.448 31.776 131.048 33.44 131.048 35.392V35.488C132.936 35.04 134.424 34.368 135.512 33.472C136.6 32.576 137.144 31.536 137.144 30.352C137.144 29.744 136.968 29.264 136.616 28.912C136.296 28.528 135.848 28.336 135.272 28.336Z" fill="white"/>
</svg>
